# xmcd
#
# Track frame offsets:
#	150
#	18691
#	45548
#	71302
#	87042
#	133971
#	153371
#	173466
#	192566
#
# Disc length: 2722 seconds
#
# Revision: 2
# Processed by: cddbd v1.5.2PL0 Copyright (c) Steve Scherf et al.
# Submitted via: EZCDAudioConverter 4.0.5.1
#
DISCID=700aa009
DTITLE=Louisiana Red and Βαμβακάρης Στέλιος - Blues
DYEAR=2008
DGENRE=Blues
TTITLE0=Standing at my door
TTITLE1=Voodoo woman
TTITLE2=Nelson Mandela
TTITLE3=Korea Blues
TTITLE4=Orphanage Home Blues
TTITLE5=Hey now baby!
TTITLE6=That's all right
TTITLE7=Η φαντασία στην εξουσία
TTITLE8=Greeceland
EXTD=
EXTT0=
EXTT1=
EXTT2=
EXTT3=
EXTT4=
EXTT5=
EXTT6=
EXTT7=
EXTT8=
PLAYORDER=
